# xmcd CD database file
#
# Track frame offsets:
#	150
#	9446
#	20961
#	29808
#	37357
#	48694
#	58451
#	68947
#	77259
#	87311
#	98803
#	109896
#	122941
#	134506
#	142999
#
# Disc length: 2062 seconds
#
# Revision: 1
# Processed by: cddbd v1.5.2PL0 Copyright (c) Steve Scherf et al.
# Submitted via: CDex 1.51
#
DISCID=e4080c0f
DTITLE=Various Artist - Christmas On The Range
DYEAR=2009
DGENRE=Country
TTITLE0=It's Christmas - Jimmy Wakely
TTITLE1=Santa Claus Is Coming to Town - Hank Thompson
TTITLE2=Ole Tex Kringle - Tex Ritter
TTITLE3=Jingle Bells - Roy Rogers
TTITLE4=Blue Christmas - The Dinning Sisters
TTITLE5=The Winter Song - Tex Williams
TTITLE6=Rudolph, The Red-Nosed Reindeer - Hank Tompson
TTITLE7=A Rootin' Tootin' Santa Claus - Tennessee Earnie Ford
TTITLE8=I am Gonna Tell Santa Claus On You - Faron Young
TTITLE9=Christmas Carols by The Old Corral - Tex Ritter
TTITLE10=Here Comes Santa Claus - Cliffe Stone
TTITLE11=Christmas Dinner - Tennessee Earnie Ford
TTITLE12=I Saw Mommy Kissing Santa Claus - Molly Bee
TTITLE13=A Pocket ful of Mistletoe - Sonny James
TTITLE14=White Christmas - Wesley Tuttle
EXTD=YEAR: 2009
EXTT0=
EXTT1=
EXTT2=
EXTT3=
EXTT4=
EXTT5=
EXTT6=
EXTT7=
EXTT8=
EXTT9=
EXTT10=
EXTT11=
EXTT12=
EXTT13=
EXTT14=
PLAYORDER=
